# xmcd
#
# Track frame offsets: 
#        150
#        10705
#        19018
#        26332
#        39261
#        45568
#        52628
#        64904
#        70028
#        76198
#        85591
#        95530
#        101732
#        104714
#        115807
#        130648
#        150314
#        166066
#        170912
#        183833
#        193234
#        208908
#        215388
#        221739
#        230699
#        237159
#        252067
#        259117
#        278938
#        299197
#        307223
#        317630
#        329441
#
# Disc length: 4521 seconds
#
# Revision: 0
# Processed by: cddbd v1.5.2PL0 Copyright (c) Steve Scherf et al.
# Submitted via: ExactAudioCopy v1.0b3
#
DISCID=d111a721
DTITLE=Various Artist - Texas Field Recordings 1934 - 1939
DYEAR=1994
DGENRE=Blues
TTITLE0=Pete Harris - Square Dance Calls
TTITLE1=Pete Harris - He Rambled
TTITLE2=Pete Harris - The Buffalo Skinners
TTITLE3=Pete Harris - Blind Lemon's Song
TTITLE4=Pete Harris - The Red Cross Store
TTITLE5=Pete Harris - Alabama Bound
TTITLE6=Pete Harris - Is You Mad at Me
TTITLE7=Pete Harris - Thirty Days in Jail
TTITLE8=Pete Harris - Carrie
TTITLE9=Pete Harris - Jack O'Diamonds (1)
TTITLE10=Pete Harris - Jack O'Diamonds (2)
TTITLE11=Pete Harris - Jack and Betsy
TTITLE12=Pete Harris - Standing on the Border
TTITLE13=Tricky Sam - Stavin' Chain (210)
TTITLE14=Tricky Sam - Stavin' Chain (215)
TTITLE15=Tricky Sam - Ella Speed
TTITLE16=August ''Track Horse'' Haggerty - I Met You Mama
TTITLE17=August ''Track Horse'' Haggerty - I Feel That Old Black Woman
TTITLE17=Is a Jinx to Me
TTITLE18=August ''Track Horse'' Haggerty - Police Special
TTITLE19=August ''Track Horse'' Haggerty - Hattie Green
TTITLE20=Jack Johnson - It Was Early One Morning
TTITLE21=Jesse Lockett - Worry Blues
TTITLE22=Smith Casey - I Wouldn't Mind Dyin' if Dyin' Was All
TTITLE23=Smith Casey - When I Git Home
TTITLE24=Smith Casey - Gray Horse Blues
TTITLE25=Smith Casey - Shorty George
TTITLE26=Smith Casey - West Texas Blues (Duet With Roger Gill)
TTITLE27=Smith Casey - Santa Fe Blues
TTITLE28=Smith Casey - Hesitating Blues
TTITLE29=Smith Casey - Jack O'Diamonds
TTITLE30=Smith Casey - Mourning Blues
TTITLE31=Smith Casey - Two White Horses Standing in Line
TTITLE32=Smith Casey - East Texas Rag (Country Rag)
EXTD=
EXTT0=
EXTT1=
EXTT2=
EXTT3=
EXTT4=
EXTT5=
EXTT6=
EXTT7=
EXTT8=
EXTT9=
EXTT10=
EXTT11=
EXTT12=
EXTT13=
EXTT14=
EXTT15=
EXTT16=
EXTT17=
EXTT18=
EXTT19=
EXTT20=
EXTT21=
EXTT22=
EXTT23=
EXTT24=
EXTT25=
EXTT26=
EXTT27=
EXTT28=
EXTT29=
EXTT30=
EXTT31=
EXTT32=
PLAYORDER=
